<?xml version="1.0" standalone="no"?>
<!DOCTYPE svg PUBLIC "-//W3C//DTD SVG 20010904//EN"
 "http://www.w3.org/TR/2001/REC-SVG-20010904/DTD/svg10.dtd">
<svg version="1.0" xmlns="http://www.w3.org/2000/svg"
 width="700.000000pt" height="700.000000pt" viewBox="0 0 700.000000 700.000000"
 preserveAspectRatio="xMidYMid meet">
<metadata>
Created by potrace 1.14, written by Peter Selinger 2001-2017
</metadata>
<g transform="translate(0.000000,700.000000) scale(0.100000,-0.100000)"
fill="#000000" stroke="none">
<path d="M733 6989 c-157 -26 -314 -103 -441 -215 -139 -124 -250 -321 -280
-497 -4 -23 -7 -1277 -7 -2787 l0 -2745 23 -85 c82 -309 313 -541 629 -632
l78 -23 2765 0 2765 0 78 23 c250 72 432 217 555 442 36 66 81 194 90 259 4
25 7 1281 7 2791 l0 2745 -23 80 c-67 232 -221 430 -421 542 -58 33 -177 79
-256 100 -41 11 -5498 13 -5562 2z"/>
</g>
</svg>
